<?xml version="1.0" encoding="UTF-8"?>
<svg id="Layer_1" data-name="Layer 1" xmlns="http://www.w3.org/2000/svg" viewBox="0 0 1031.68 1031.68">
  <defs>
    <style>
      .cls-1 {
        fill: #fff;
      }

      .cls-2 {
        fill: none;
        stroke: #fff;
        stroke-miterlimit: 10;
        stroke-width: 60px;
      }
    </style>
  </defs>
  <g>
    <path class="cls-1" d="M165.95,239.47c-8.55.83-12.04-2.51-15.43-8.69-29.8-54.31,12.23-118.65,61.78-128.22,25.61-4.95,52.17-6.19,78.35-6.68,19.9-.38,39.86,3.41,59.83,4.7,17.35,1.12,34.52.31,49.89-9.63,5.97-3.86,12.36-7.06,18.27-11,7.02-4.68,12.58-3.39,17.59,2.92-6.86,17.76-21.34,28.77-34.64,40.6-16.6,14.77-36.59,23.96-56.82,32.5-3,1.27-6.6,1.36-9.95,1.51-38.49,1.73-76.54-3.02-114.2-9.88-24.24-4.42-51.01,15.14-55.97,37.1-4.16,18.41-9.25,36.41,1.3,54.78Z"/>
    <g>
      <g>
        <path class="cls-1" d="M262,857.29c.06,8.8-6.48,14.81-16.82,14.2-14.65-.85-29.22-3.23-43.81-5.03-25.46-3.13-44.82-17.99-62.99-34.24-5.68-5.08-7.98-13.75-12.63-20.2-14.92-20.7-14.84-42.99-10.06-66.96,5.84-29.3,24.95-48.57,46.86-65.33,22.56-17.26,48.64-26.99,77.66-23.46,12.4,1.51,24.51,5.75,36.6,9.29,20.91,6.11,42.21,10.73,61.9,21.02,15.52,8.11,27.15,2.85,36.12-11.83,7.04-11.52,9.89-23.64,9.76-37.01-1.16-116.71-2.83-233.42-2.77-350.13.02-42.25,12.86-81.58,41.21-114.16,14.36-16.51,28.44-34.05,45.71-47.06,25.96-19.57,54.95-35.04,89.71-27,9.45,2.18,18.39,6.89,27.3,11.01,20.24,9.37,38.46,6.25,54.79-8.42,4.56-4.09,10.22-7.82,14.07-2.42,3.22,4.52,2.6,11.34-4.39,15.67-18.07,11.21-36.1,22.57-53.33,35.01-8.71,6.29-15.65,15.04-22.9,22.19-20.59-9.85-42.87-20.84-65.46-31.15-10.94-4.99-22,1.02-29.11,12.6-15.07,24.53-15.36,51.63-14.69,78.86.64,25.96,2.42,51.89,3.13,77.85.18,6.6,2.64,8.27,8.67,10.21,18.84,6.07,37.81,5.1,56.88,3.1,16.81-1.76,27.74-14.81,27.31-31.74-.11-4.15-.02-8.31-.02-13.04,6.28,9.33,12.08,17.85,17.73,26.47.78,1.19,1.15,2.87,1.15,4.32.06,35.27.05,70.53.05,108.32-4.83-2.83-8.82-4.44-11.92-7.1-9.97-8.56-16.73-21.31-32.37-22.03-10.59-.49-21.32-4.36-31.6-3.21-9.99,1.12-20.49,5.19-28.9,10.79-9.25,6.16-7.96,18.21-8.1,28.04-.52,36.53.04,73.07-.27,109.6-.43,51.08-14.55,98.06-44.88,139.4-13.93,18.98-31.56,33.8-52.32,46.06-17.22,10.17-33.25,13.26-52.2,9.09-24.35-5.35-48.78-11.32-73.5-13.66-22.04-2.09-44.04,1.96-64.59,12.12-14.36,7.1-26.04,16.23-33.2,30.81-8.84,17.99-8.63,36.21,3.01,53.17,15.04,21.91,38.45,31.49,61.28,41.2,8.89,3.78,20.13,2.01,30.3,2.83,7.04.57,14.07,1.27,21.64,1.96ZM553.09,372.04c2.71-.11,7.21-3.15,7.57-5.38,1.27-7.79,1.27-15.81,1.41-23.76.15-9.03-4.72-10.32-12.78-9.04-14.19,2.25-28.53,4.12-42.86,4.69-9.14.36-18.39-1.91-27.59-2.99-7.72-.91-11.87,2.83-12.26,10.28-.38,7.41,0,14.85-.04,22.28-.03,5.31,2.72,6.7,7.69,6.59,12.99-.27,25.99-.09,38.98-.09"/>
        <path class="cls-1" d="M158.42,438.65c.28-35.2,6.62-67.24,37.31-90.05,11.18-8.31,22.68-12.9,36.32-13.56,14.22-.69,16.28-1.85,17.95-15.91,3.87-32.58,17.95-60.64,37.36-86.17,16.71-21.98,38.06-37.23,68.01-39.57-1.66,5.22-2.79,10.2-4.77,14.82-15.28,35.6-19.18,73.21-19.96,111.37-1.19,58.16-1.95,116.33-3.56,174.48-1.02,36.97-15.51,69.21-36.91,98.88-9.84,13.65-21.2,24.81-37.46,30.08-3.16,1.02-6.78,2.09-9.85,1.46-3.07-.63-7.22-2.82-8.12-5.32-.92-2.58.48-7.52,2.64-9.42,14.48-12.81,18.91-29.82,20.65-47.85,1.69-17.53,3.96-35.16,3.51-52.69-.76-29.91-3.12-59.79-5.49-89.63-.93-11.65-10.06-17.95-26.21-19.21-20.15-1.57-36.27,6.21-48.96,21.91-5.83,7.22-9.04,18.48-22.45,16.38Z"/>
      </g>
      <path class="cls-1" d="M666.31,348.04h64.82v89.57c36.79-30.92,71.61-60.17,107.37-90.23,14.05,16.59,27.89,32.93,42.46,50.14-21.98,18.56-43.64,36.89-65.34,55.18-26.52,22.36-53.23,44.49-79.38,67.28-3.75,3.26-6.49,9.55-6.76,14.59-.85,15.98-.32,32.04-.32,50.24,46.92-39.04,92.99-77.38,140.27-116.72,13.79,16.41,27.49,32.72,42.16,50.18-12.41,10.41-24.54,20.66-36.74,30.83-46.3,38.57-92.53,77.23-139.03,115.56-6.48,5.34-9.25,10.89-9.36,19.41-1.02,79.65-2.49,159.3-3.82,238.96-.08,5.07-.01,10.15-.01,16.11h-66.18c3.28-197.19,6.55-393.57,9.84-591.11Z"/>
    </g>
  </g>
  <rect class="cls-2" x="31.24" y="31" width="969.21" height="969.69"/>
</svg>